<svg xmlns="http://www.w3.org/2000/svg" width="900" height="336" viewBox="0 0 900 336" font-family="'JetBrains Mono','Fira Code',Consolas,'DejaVu Sans Mono','Courier New',monospace" xmlns:c2pa="http://c2pa.org/manifest"><metadata><c2pa:manifest>AAAWgmp1bWIAAAAeanVtZGMycGEAEQAQgAAAqgA4m3EDYzJwYQAAABZcanVtYgAAAEdqdW1kYzJtYQARABCAAACqADibcQN1cm46YzJwYTpmOWMwMzVmNC0yYzdlLTQzNjYtOTBhOS1jODM4OTE4YzU0NjkAAAADl2p1bWIAAAApanVtZGMyYXMAEQAQgAAAqgA4m3EDYzJwYS5hc3NlcnRpb25zAAAAALxqdW1iAAAARGp1bWRjYm9yABEAEIAAAKoAOJtxE2MycGEuaW5ncmVkaWVudC52MwAAAAAYYzJzaNRMlMw9haO5WtQ74e8Yac0AAABwY2JvcqNpZGM6Zm9ybWF0bWltYWdlL3N2Zyt4bWxqaW5zdGFuY2VJRHgseG1wOmlpZDowYWNjZmZmNi05NDdjLTQ0MWQtYmMwMS02YzMzNTgzOGE1M2RscmVsYXRpb25zaGlwaHBhcmVudE9mAAAB4mp1bWIAAABBanVtZGNib3IAEQAQgAAAqgA4m3ETYzJwYS5hY3Rpb25zLnYyAAAAABhjMnNoEuzYCoD2YlRRL6AQNB945QAAAZljYm9yomdhY3Rpb25zgqJmYWN0aW9ua2MycGEub3BlbmVkanBhcmFtZXRlcnOha2luZ3JlZGllbnRzgaJjdXJseC1zZWxmI2p1bWJmPWMycGEuYXNzZXJ0aW9ucy9jMnBhLmluZ3JlZGllbnQudjNkaGFzaFggu8dqYYasty0587FycjlkdDTdT1Oeg3xXWfHqjbAjIV+kZmFjdGlvbngdY29tLmFudGhyb3BpYy5jbGF1ZGUucHJvdmlkZWRqcGFyYW1ldGVyc6F4H2NvbS5hbnRocm9waWMub3JpZ2luLWNvbmZpZGVuY2VndW5rbm93bmtkZXNjcmlwdGlvbnhmQ2xhdWRlIHByb3ZpZGVkIHRoaXMgZmlsZSBhdCB0aGUgcmVxdWVzdCBvZiBhIHVzZXIgYW5kIG1heSBoYXZlIGNyZWF0ZWQgb3IgbW9kaWZpZWQgdGhlIGZpbGUgY29udGVudHMubXNvZnR3YXJlQWdlbnShZG5hbWVmQ2xhdWRlcmFsbEFjdGlvbnNJbmNsdWRlZPUAAADIanVtYgAAAEBqdW1kY2JvcgARABCAAACqADibcRNjMnBhLmhhc2guZGF0YQAAAAAYYzJzaD8lmBuVq6UH2TLcXR35gqoAAACAY2JvcqVjYWxnZnNoYTI1NmNwYWRNAAAAAAAAAAAAAAAAAGRoYXNoWCCpX+vHmgR/ZDAqF8mDEVT/VQVFw3Qz4CE3i+ywVs4EMGRuYW1lbmp1bWJmIG1hbmlmZXN0amV4Y2x1c2lvbnOBomVzdGFydBj1Zmxlbmd0aBkeBAAAAj5qdW1iAAAAJ2p1bWRjMmNsABEAEIAAAKoAOJtxA2MycGEuY2xhaW0udjIAAAACD2Nib3KlY2FsZ2ZzaGEyNTZpc2lnbmF0dXJleE1zZWxmI2p1bWJmPS9jMnBhL3VybjpjMnBhOmY5YzAzNWY0LTJjN2UtNDM2Ni05MGE5LWM4Mzg5MThjNTQ2OS9jMnBhLnNpZ25hdHVyZWppbnN0YW5jZUlEeCx4bXA6aWlkOjFiYTJkZWE0LTNkYTMtNDM4MS1iMTUyLTUxNGY0NTM5ZjkzMHJjcmVhdGVkX2Fzc2VydGlvbnODomN1cmx4LXNlbGYjanVtYmY9YzJwYS5hc3NlcnRpb25zL2MycGEuaW5ncmVkaWVudC52M2RoYXNoWCC7x2phhqy3LTnzsXJyOWR0NN1PU56DfFdZ8eqNsCMhX6JjdXJseCpzZWxmI2p1bWJmPWMycGEuYXNzZXJ0aW9ucy9jMnBhLmFjdGlvbnMudjJkaGFzaFggq0Rd/ohGcjdPOmR48QcnS+gK3tV/1vpQgkl/y9EBKqOiY3VybHgpc2VsZiNqdW1iZj1jMnBhLmFzc2VydGlvbnMvYzJwYS5oYXNoLmRhdGFkaGFzaFggASmT+wFAkPF/n60AB63xYndQSnfL/7I1PwK64768r610Y2xhaW1fZ2VuZXJhdG9yX2luZm+jZG5hbWVvQW50aHJvcGljIEZpbGVzZ3ZlcnNpb25lMS4wLjBrc3BlY1ZlcnNpb25lMi40LjAAABA4anVtYgAAAChqdW1kYzJjcwARABCAAACqADibcQNjMnBhLnNpZ25hdHVyZQAAABAIY2JvctKEWQISogEmGCFZAgowggIGMIIBjaADAgECAhRA5aAK7sI50L64g/oGQgU9Z1UTADAKBggqhkjOPQQDAzBJMRcwFQYDVQQKEw5BbnRocm9waWMsIFBCQzEuMCwGA1UEAxMlQW50aHJvcGljIENvbnRlbnQgQ3JlZGVudGlhbHMgUm9vdCBDQTAeFw0yNjA4MDcxODQzNTZaFw0yODA4MDYxOTQzNTZaMEQxFzAVBgNVBAoTDkFudGhyb3BpYywgUEJDMSkwJwYDVQQDEyBBbnRocm9waWMgQ2xhdWRlIENvbnRlbnQgU2lnbmluZzBZMBMGByqGSM49AgEGCCqGSM49AwEHA0IABJh6CmvLUBgFFNU0vUKlOVtE6djd17L5SuwX0LemFisBM3dkd/3cyjxFA3Qo5S46fX0/ihY0VZ7mfb9KF703t5OjWDBWMA4GA1UdDwEB/wQEAwIHgDAVBgNVHSUEDjAMBgorBgEEAYPoXgIBMAwGA1UdEwEB/wQCMAAwHwYDVR0jBBgwFoAUzlHiBIFOZFsj+OPEz5o+nMHXXMIwCgYIKoZIzj0EAwMDZwAwZAIwMXMdFJ4BetLLVY7ORuE9noqbbAZOZn/aArXyTwFAZfKrPzxF2vPoJNf1+UCdg1XGAjBwX1zd9WGqYkqmL5SFqw1QySjr1zJfpJM9+1rdDwSPLMOPOjKuiXjoU/pUUeG9RwmhY3BhZFkNngAAAAAAAAAAAAAAAAAAAAAAAAAAAAAAAAAAAAAAAAAAAAAAAAAAAAAAAAAAAAAAAAAAAAAAAAAAAAAAAAAAAAAAAAAAAAAAAAAAAAAAAAAAAAAAAAAAAAAAAAAAAAAAAAAAAAAAAAAAAAAAAAAAAAAAAAAAAAAAAAAAAAAAAAAAAAAAAAAAAAAAAAAAAAAAAAAAAAAAAAAAAAAAAAAAAAAAAAAAAAAAAAAAAAAAAAAAAAAAAAAAAAAAAAAAAAAAAAAAAAAAAAAAAAAAAAAAAAAAAAAAAAAAAAAAAAAAAAAAAAAAAAAAAAAAAAAAAAAAAAAAAAAAAAAAAAAAAAAAAAAAAAAAAAAAAAAAAAAAAAAAAAAAAAAAAAAAAAAAAAAAAAAAAAAAAAAAAAAAAAAAAAAAAAAAAAAAAAAAAAAAAAAAAAAAAAAAAAAAAAAAAAAAAAAAAAAAAAAAAAAAAAAAAAAAAAAAAAAAAAAAAAAAAAAAAAAAAAAAAAAAAAAAAAAAAAAAAAAAAAAAAAAAAAAAAAAAAAAAAAAAAAAAAAAAAAAAAAAAAAAAAAAAAAAAAAAAAAAAAAAAAAAAAAAAAAAAAAAAAAAAAAAAAAAAAAAAAAAAAAAAAAAAAAAAAAAAAAAAAAAAAAAAAAAAAAAAAAAAAAAAAAAAAAAAAAAAAAAAAAAAAAAAAAAAAAAAAAAAAAAAAAAAAAAAAAAAAAAAAAAAAAAAAAAAAAAAAAAAAAAAAAAAAAAAAAAAAAAAAAAAAAAAAAAAAAAAAAAAAAAAAAAAAAAAAAAAAAAAAAAAAAAAAAAAAAAAAAAAAAAAAAAAAAAAAAAAAAAAAAAAAAAAAAAAAAAAAAAAAAAAAAAAAAAAAAAAAAAAAAAAAAAAAAAAAAAAAAAAAAAAAAAAAAAAAAAAAAAAAAAAAAAAAAAAAAAAAAAAAAAAAAAAAAAAAAAAAAAAAAAAAAAAAAAAAAAAAAAAAAAAAAAAAAAAAAAAAAAAAAAAAAAAAAAAAAAAAAAAAAAAAAAAAAAAAAAAAAAAAAAAAAAAAAAAAAAAAAAAAAAAAAAAAAAAAAAAAAAAAAAAAAAAAAAAAAAAAAAAAAAAAAAAAAAAAAAAAAAAAAAAAAAAAAAAAAAAAAAAAAAAAAAAAAAAAAAAAAAAAAAAAAAAAAAAAAAAAAAAAAAAAAAAAAAAAAAAAAAAAAAAAAAAAAAAAAAAAAAAAAAAAAAAAAAAAAAAAAAAAAAAAAAAAAAAAAAAAAAAAAAAAAAAAAAAAAAAAAAAAAAAAAAAAAAAAAAAAAAAAAAAAAAAAAAAAAAAAAAAAAAAAAAAAAAAAAAAAAAAAAAAAAAAAAAAAAAAAAAAAAAAAAAAAAAAAAAAAAAAAAAAAAAAAAAAAAAAAAAAAAAAAAAAAAAAAAAAAAAAAAAAAAAAAAAAAAAAAAAAAAAAAAAAAAAAAAAAAAAAAAAAAAAAAAAAAAAAAAAAAAAAAAAAAAAAAAAAAAAAAAAAAAAAAAAAAAAAAAAAAAAAAAAAAAAAAAAAAAAAAAAAAAAAAAAAAAAAAAAAAAAAAAAAAAAAAAAAAAAAAAAAAAAAAAAAAAAAAAAAAAAAAAAAAAAAAAAAAAAAAAAAAAAAAAAAAAAAAAAAAAAAAAAAAAAAAAAAAAAAAAAAAAAAAAAAAAAAAAAAAAAAAAAAAAAAAAAAAAAAAAAAAAAAAAAAAAAAAAAAAAAAAAAAAAAAAAAAAAAAAAAAAAAAAAAAAAAAAAAAAAAAAAAAAAAAAAAAAAAAAAAAAAAAAAAAAAAAAAAAAAAAAAAAAAAAAAAAAAAAAAAAAAAAAAAAAAAAAAAAAAAAAAAAAAAAAAAAAAAAAAAAAAAAAAAAAAAAAAAAAAAAAAAAAAAAAAAAAAAAAAAAAAAAAAAAAAAAAAAAAAAAAAAAAAAAAAAAAAAAAAAAAAAAAAAAAAAAAAAAAAAAAAAAAAAAAAAAAAAAAAAAAAAAAAAAAAAAAAAAAAAAAAAAAAAAAAAAAAAAAAAAAAAAAAAAAAAAAAAAAAAAAAAAAAAAAAAAAAAAAAAAAAAAAAAAAAAAAAAAAAAAAAAAAAAAAAAAAAAAAAAAAAAAAAAAAAAAAAAAAAAAAAAAAAAAAAAAAAAAAAAAAAAAAAAAAAAAAAAAAAAAAAAAAAAAAAAAAAAAAAAAAAAAAAAAAAAAAAAAAAAAAAAAAAAAAAAAAAAAAAAAAAAAAAAAAAAAAAAAAAAAAAAAAAAAAAAAAAAAAAAAAAAAAAAAAAAAAAAAAAAAAAAAAAAAAAAAAAAAAAAAAAAAAAAAAAAAAAAAAAAAAAAAAAAAAAAAAAAAAAAAAAAAAAAAAAAAAAAAAAAAAAAAAAAAAAAAAAAAAAAAAAAAAAAAAAAAAAAAAAAAAAAAAAAAAAAAAAAAAAAAAAAAAAAAAAAAAAAAAAAAAAAAAAAAAAAAAAAAAAAAAAAAAAAAAAAAAAAAAAAAAAAAAAAAAAAAAAAAAAAAAAAAAAAAAAAAAAAAAAAAAAAAAAAAAAAAAAAAAAAAAAAAAAAAAAAAAAAAAAAAAAAAAAAAAAAAAAAAAAAAAAAAAAAAAAAAAAAAAAAAAAAAAAAAAAAAAAAAAAAAAAAAAAAAAAAAAAAAAAAAAAAAAAAAAAAAAAAAAAAAAAAAAAAAAAAAAAAAAAAAAAAAAAAAAAAAAAAAAAAAAAAAAAAAAAAAAAAAAAAAAAAAAAAAAAAAAAAAAAAAAAAAAAAAAAAAAAAAAAAAAAAAAAAAAAAAAAAAAAAAAAAAAAAAAAAAAAAAAAAAAAAAAAAAAAAAAAAAAAAAAAAAAAAAAAAAAAAAAAAAAAAAAAAAAAAAAAAAAAAAAAAAAAAAAAAAAAAAAAAAAAAAAAAAAAAAAAAAAAAAAAAAAAAAAAAAAAAAAAAAAAAAAAAAAAAAAAAAAAAAAAAAAAAAAAAAAAAAAAAAAAAAAAAAAAAAAAAAAAAAAAAAAAAAAAAAAAAAAAAAAAAAAAAAAAAAAAAAAAAAAAAAAAAAAAAAAAAAAAAAAAAAAAAAAAAAAAAAAAAAAAAAAAAAAAAAAAAAAAAAAAAAAAAAAAAAAAAAAAAAAAAAAAAAAAAAAAAAAAAAAAAAAAAAAAAAAAAAAAAAAAAAAAAAAAAAAAAAAAAAAAAAAAAAAAAAAAAAAAAAAAAAAAAAAAAAAAAAAAAAAAAAAAAAAAAAAAAAAAAAAAAAAAAAAAAAAAAAAAAAAAAAAAAAAAAAAAAAAAAAAAAAAAAAAAAAAAAAAAAAAAAAAAAAAAAAAAAAAAAAAAAAAAAAAAAAAAAAAAAAAAAAAAAAAAAAAAAAAAAAAAAAAAAAAAAAAAAAAAAAAAAAAAAAAAAAAAAAAAAAAAAAAAAAAAAAAAAAAAAAAAAAAAAAAAAAAAAAAAAAAAAAAAAAAAAAAAAAAAAAAAAAAAAAAAAAAAAAAAAAAAAAAAAAAAAAAAAAAAAAAAAAAAAAAAAAAAAAAAAAAAAAAAAAAAAAAAAAAAAAAAAAAAAAAAAAAAAAAAAAAAAAAAAAAAAAAAAAAAAAAAAAAAAAAAAAAAAAAAAAAAAAAAAAAAAAAAAAAAAAAAAAAAAAAAAAAAAAAAAAAAAAAAAAAAAAAAAAAAAAAAAAAAAAAAAAAAAAAAAAAAAAAAAAAAAAAAAAAAAAAAAAAAAAAAAAAAAAAAAAAAAAAAAAAAAAAAAAAAAAAAAAAAAAAAAAAAAAAAAAAAAAAAAAAAAAAAAAAAAAAAAAAAAAAAAAAAAAAAAAAAAAAAAAAAAAAAAAAAAAAAAAAAAAAAAAAAAAAAAAAAAAAAAAAAAAAAAAAAAAAAAAAAAAAAAAAAAAAAAAAAAAAAAAAAAAAAAAAAAAAAAAAAAAAAAAAAAAAAAAAAAAAAAAAAAAAAAAAAAAAAAAAAAAAAAAAAAAAAAAAAAAAAAAAAAAAAAAAAAAAAAAAAAAAAAAAAAAAAAAAAAAAAAAAAAAAAAAAAAAAAAAAAAAAAAAAAAAAAAAAAAAAAAAAAAAAAAAAAAAAAAAAAAAAAAAAAAAAAAAAAAAAAAAAAAAAAAAAAAAAAAAAAAAAAAAAAAAAAAAAAAAAAAAAAAAAAAAAAAAAAAAAAAAAAAAAAAAAAAAAAAAAAAAAAAAAAAAAAAAAAAAAAAAAAAAAAAAAAAAAAAAAAAAAAAAAAAAAAAAAAAAAAAAAAAAAAAAAAAAAAAAAAAAAAAAAAAAAAAAAAAAAAAAAAAAAAAAAAAAAAAAAAAAAAAAAAAAAAAAAAAAAAAAAAAAAAAAAAAAAAAAAAAAAAAAAAAAAAAAAAAAAAAAAAAAAAAAAAAAAAAAAAAAAAAAAAAAAAAAAAAAAAAAAAAAAAAAAAAAAAAAAAAAAAAAAAAAAAAAAAAAAAAAAAAAAAAAAAAAAAAAAAAAAAAAAAAAAAAAAAAAAAAAAAAAAAAAAAAAAAAAAAAAAAAAAAAAAAAAAAAAAAAAAAAAAAAAAAAAAAAAAAAAAAAAAAAAAAAAAAAAAAAAAAAAAAAAAAAAAAAAAAAAAAAAAAAAAAAAAAAAAAAAAAAAAAAAAAAAAAAAAAAAAAAAAAAAAAAAAAAAAAAAAAAAAAAAAAAAAAAAAAAAAAAAAAAAAAAAAAAAAPZYQDfgXuc0r85ocq729zrgN8WfF92ySfMOda82lS49390dcavLVvH8BMOZLmT71F+P8yXChV9VAFtE7Y9/GjWqNLo=</c2pa:manifest></metadata>
<rect width="900" height="336" rx="12" fill="#0b0f1a"/>
<g><animate attributeName="opacity" values="0;0;1;1" keyTimes="0;0.0400;0.1100;1" dur="5s" begin="0s" fill="freeze"/><rect x="10" y="10" width="280" height="92" rx="6" fill="#0f1626" stroke="#f5c542" stroke-opacity=".7"/><g fill="#f5c542" shape-rendering="crispEdges"><rect x="32" y="36" width="5" height="5"/><rect x="37" y="36" width="5" height="5"/><rect x="42" y="36" width="5" height="5"/><rect x="47" y="36" width="5" height="5"/><rect x="52" y="36" width="5" height="5"/><rect x="57" y="36" width="5" height="5"/><rect x="32" y="41" width="5" height="5"/><rect x="57" y="41" width="5" height="5"/><rect x="62" y="41" width="5" height="5"/><rect x="32" y="46" width="5" height="5"/><rect x="42" y="46" width="5" height="5"/><rect x="47" y="46" width="5" height="5"/><rect x="62" y="46" width="5" height="5"/><rect x="67" y="46" width="5" height="5"/><rect x="32" y="51" width="5" height="5"/><rect x="57" y="51" width="5" height="5"/><rect x="62" y="51" width="5" height="5"/><rect x="67" y="51" width="5" height="5"/><rect x="32" y="56" width="5" height="5"/><rect x="42" y="56" width="5" height="5"/><rect x="47" y="56" width="5" height="5"/><rect x="52" y="56" width="5" height="5"/><rect x="57" y="56" width="5" height="5"/><rect x="67" y="56" width="5" height="5"/><rect x="32" y="61" width="5" height="5"/><rect x="67" y="61" width="5" height="5"/><rect x="32" y="66" width="5" height="5"/><rect x="42" y="66" width="5" height="5"/><rect x="47" y="66" width="5" height="5"/><rect x="52" y="66" width="5" height="5"/><rect x="57" y="66" width="5" height="5"/><rect x="67" y="66" width="5" height="5"/><rect x="32" y="71" width="5" height="5"/><rect x="37" y="71" width="5" height="5"/><rect x="42" y="71" width="5" height="5"/><rect x="47" y="71" width="5" height="5"/><rect x="52" y="71" width="5" height="5"/><rect x="57" y="71" width="5" height="5"/><rect x="62" y="71" width="5" height="5"/><rect x="67" y="71" width="5" height="5"/></g><text x="94" y="42" font-size="11" fill="#f5c542" letter-spacing="2">PUBLISHED . IEEE</text><text x="94" y="66" font-size="16" font-weight="700" fill="#e6edf3">ComputingCon 2025</text><text x="94" y="86" font-size="11" fill="#7d8da8">Ensemble ML + Sparse PCA</text></g>
<g><animate attributeName="opacity" values="0;0;1;1" keyTimes="0;0.0900;0.1600;1" dur="5s" begin="0s" fill="freeze"/><rect x="310" y="10" width="280" height="92" rx="6" fill="#0f1626" stroke="#f5c542" stroke-opacity=".7"/><g fill="#f5c542" shape-rendering="crispEdges"><rect x="337" y="36" width="5" height="5"/><rect x="342" y="36" width="5" height="5"/><rect x="347" y="36" width="5" height="5"/><rect x="352" y="36" width="5" height="5"/><rect x="357" y="36" width="5" height="5"/><rect x="362" y="36" width="5" height="5"/><rect x="332" y="41" width="5" height="5"/><rect x="337" y="41" width="5" height="5"/><rect x="342" y="41" width="5" height="5"/><rect x="347" y="41" width="5" height="5"/><rect x="352" y="41" width="5" height="5"/><rect x="357" y="41" width="5" height="5"/><rect x="362" y="41" width="5" height="5"/><rect x="367" y="41" width="5" height="5"/><rect x="332" y="46" width="5" height="5"/><rect x="342" y="46" width="5" height="5"/><rect x="347" y="46" width="5" height="5"/><rect x="352" y="46" width="5" height="5"/><rect x="357" y="46" width="5" height="5"/><rect x="367" y="46" width="5" height="5"/><rect x="337" y="51" width="5" height="5"/><rect x="342" y="51" width="5" height="5"/><rect x="347" y="51" width="5" height="5"/><rect x="352" y="51" width="5" height="5"/><rect x="357" y="51" width="5" height="5"/><rect x="362" y="51" width="5" height="5"/><rect x="342" y="56" width="5" height="5"/><rect x="347" y="56" width="5" height="5"/><rect x="352" y="56" width="5" height="5"/><rect x="357" y="56" width="5" height="5"/><rect x="347" y="61" width="5" height="5"/><rect x="352" y="61" width="5" height="5"/><rect x="347" y="66" width="5" height="5"/><rect x="352" y="66" width="5" height="5"/><rect x="342" y="71" width="5" height="5"/><rect x="347" y="71" width="5" height="5"/><rect x="352" y="71" width="5" height="5"/><rect x="357" y="71" width="5" height="5"/></g><text x="394" y="42" font-size="11" fill="#f5c542" letter-spacing="2">WINNER</text><text x="394" y="66" font-size="16" font-weight="700" fill="#e6edf3">NioHack 2026</text><text x="394" y="86" font-size="11" fill="#7d8da8">hackathon</text></g>
<g><animate attributeName="opacity" values="0;0;1;1" keyTimes="0;0.1400;0.2100;1" dur="5s" begin="0s" fill="freeze"/><rect x="610" y="10" width="280" height="92" rx="6" fill="#0f1626" stroke="#f5c542" stroke-opacity=".7"/><g fill="#f5c542" shape-rendering="crispEdges"><rect x="637" y="36" width="5" height="5"/><rect x="642" y="36" width="5" height="5"/><rect x="647" y="36" width="5" height="5"/><rect x="652" y="36" width="5" height="5"/><rect x="657" y="36" width="5" height="5"/><rect x="662" y="36" width="5" height="5"/><rect x="632" y="41" width="5" height="5"/><rect x="637" y="41" width="5" height="5"/><rect x="642" y="41" width="5" height="5"/><rect x="647" y="41" width="5" height="5"/><rect x="652" y="41" width="5" height="5"/><rect x="657" y="41" width="5" height="5"/><rect x="662" y="41" width="5" height="5"/><rect x="667" y="41" width="5" height="5"/><rect x="632" y="46" width="5" height="5"/><rect x="642" y="46" width="5" height="5"/><rect x="647" y="46" width="5" height="5"/><rect x="652" y="46" width="5" height="5"/><rect x="657" y="46" width="5" height="5"/><rect x="667" y="46" width="5" height="5"/><rect x="637" y="51" width="5" height="5"/><rect x="642" y="51" width="5" height="5"/><rect x="647" y="51" width="5" height="5"/><rect x="652" y="51" width="5" height="5"/><rect x="657" y="51" width="5" height="5"/><rect x="662" y="51" width="5" height="5"/><rect x="642" y="56" width="5" height="5"/><rect x="647" y="56" width="5" height="5"/><rect x="652" y="56" width="5" height="5"/><rect x="657" y="56" width="5" height="5"/><rect x="647" y="61" width="5" height="5"/><rect x="652" y="61" width="5" height="5"/><rect x="647" y="66" width="5" height="5"/><rect x="652" y="66" width="5" height="5"/><rect x="642" y="71" width="5" height="5"/><rect x="647" y="71" width="5" height="5"/><rect x="652" y="71" width="5" height="5"/><rect x="657" y="71" width="5" height="5"/></g><text x="694" y="42" font-size="11" fill="#f5c542" letter-spacing="2">WINNER</text><text x="694" y="66" font-size="16" font-weight="700" fill="#e6edf3">QuantumHacks 2026</text><text x="694" y="86" font-size="11" fill="#7d8da8">hackathon</text></g>
<g><animate attributeName="opacity" values="0;0;1;1" keyTimes="0;0.1900;0.2600;1" dur="5s" begin="0s" fill="freeze"/><rect x="10" y="122" width="280" height="92" rx="6" fill="#0f1626" stroke="#4cc9f0" stroke-opacity=".7"/><g fill="#4cc9f0" shape-rendering="crispEdges"><rect x="32" y="148" width="5" height="5"/><rect x="37" y="148" width="5" height="5"/><rect x="42" y="148" width="5" height="5"/><rect x="47" y="148" width="5" height="5"/><rect x="52" y="148" width="5" height="5"/><rect x="57" y="148" width="5" height="5"/><rect x="32" y="153" width="5" height="5"/><rect x="37" y="153" width="5" height="5"/><rect x="42" y="153" width="5" height="5"/><rect x="47" y="153" width="5" height="5"/><rect x="52" y="153" width="5" height="5"/><rect x="57" y="153" width="5" height="5"/><rect x="62" y="153" width="5" height="5"/><rect x="32" y="158" width="5" height="5"/><rect x="37" y="158" width="5" height="5"/><rect x="42" y="158" width="5" height="5"/><rect x="47" y="158" width="5" height="5"/><rect x="52" y="158" width="5" height="5"/><rect x="57" y="158" width="5" height="5"/><rect x="32" y="163" width="5" height="5"/><rect x="32" y="168" width="5" height="5"/><rect x="32" y="173" width="5" height="5"/><rect x="32" y="178" width="5" height="5"/><rect x="32" y="183" width="5" height="5"/></g><text x="94" y="154" font-size="11" fill="#4cc9f0" letter-spacing="2">FINALIST</text><text x="94" y="178" font-size="16" font-weight="700" fill="#e6edf3">OOSC 4.0</text><text x="94" y="198" font-size="11" fill="#7d8da8">IIIT Allahabad</text></g>
<g><animate attributeName="opacity" values="0;0;1;1" keyTimes="0;0.2400;0.3100;1" dur="5s" begin="0s" fill="freeze"/><rect x="310" y="122" width="280" height="92" rx="6" fill="#0f1626" stroke="#4cc9f0" stroke-opacity=".7"/><g fill="#4cc9f0" shape-rendering="crispEdges"><rect x="337" y="148" width="5" height="5"/><rect x="362" y="148" width="5" height="5"/><rect x="342" y="153" width="5" height="5"/><rect x="357" y="153" width="5" height="5"/><rect x="342" y="158" width="5" height="5"/><rect x="347" y="158" width="5" height="5"/><rect x="352" y="158" width="5" height="5"/><rect x="357" y="158" width="5" height="5"/><rect x="337" y="163" width="5" height="5"/><rect x="342" y="163" width="5" height="5"/><rect x="347" y="163" width="5" height="5"/><rect x="352" y="163" width="5" height="5"/><rect x="357" y="163" width="5" height="5"/><rect x="362" y="163" width="5" height="5"/><rect x="332" y="168" width="5" height="5"/><rect x="337" y="168" width="5" height="5"/><rect x="342" y="168" width="5" height="5"/><rect x="347" y="168" width="5" height="5"/><rect x="352" y="168" width="5" height="5"/><rect x="357" y="168" width="5" height="5"/><rect x="362" y="168" width="5" height="5"/><rect x="367" y="168" width="5" height="5"/><rect x="332" y="173" width="5" height="5"/><rect x="337" y="173" width="5" height="5"/><rect x="342" y="173" width="5" height="5"/><rect x="347" y="173" width="5" height="5"/><rect x="352" y="173" width="5" height="5"/><rect x="357" y="173" width="5" height="5"/><rect x="362" y="173" width="5" height="5"/><rect x="367" y="173" width="5" height="5"/><rect x="337" y="178" width="5" height="5"/><rect x="342" y="178" width="5" height="5"/><rect x="347" y="178" width="5" height="5"/><rect x="352" y="178" width="5" height="5"/><rect x="357" y="178" width="5" height="5"/><rect x="362" y="178" width="5" height="5"/><rect x="342" y="183" width="5" height="5"/><rect x="347" y="183" width="5" height="5"/><rect x="352" y="183" width="5" height="5"/><rect x="357" y="183" width="5" height="5"/></g><text x="394" y="154" font-size="11" fill="#4cc9f0" letter-spacing="2">TOP 10</text><text x="394" y="178" font-size="16" font-weight="700" fill="#e6edf3">HACKMOL 6.0</text><text x="394" y="198" font-size="11" fill="#7d8da8">hackathon</text></g>
<g><animate attributeName="opacity" values="0;0;1;1" keyTimes="0;0.2900;0.3600;1" dur="5s" begin="0s" fill="freeze"/><rect x="610" y="122" width="280" height="92" rx="6" fill="#0f1626" stroke="#9b8cff" stroke-opacity=".7"/><g fill="#9b8cff" shape-rendering="crispEdges"><rect x="642" y="148" width="5" height="5"/><rect x="647" y="148" width="5" height="5"/><rect x="652" y="148" width="5" height="5"/><rect x="657" y="148" width="5" height="5"/><rect x="637" y="153" width="5" height="5"/><rect x="642" y="153" width="5" height="5"/><rect x="647" y="153" width="5" height="5"/><rect x="652" y="153" width="5" height="5"/><rect x="657" y="153" width="5" height="5"/><rect x="662" y="153" width="5" height="5"/><rect x="637" y="158" width="5" height="5"/><rect x="642" y="158" width="5" height="5"/><rect x="647" y="158" width="5" height="5"/><rect x="652" y="158" width="5" height="5"/><rect x="657" y="158" width="5" height="5"/><rect x="662" y="158" width="5" height="5"/><rect x="637" y="163" width="5" height="5"/><rect x="642" y="163" width="5" height="5"/><rect x="647" y="163" width="5" height="5"/><rect x="652" y="163" width="5" height="5"/><rect x="657" y="163" width="5" height="5"/><rect x="662" y="163" width="5" height="5"/><rect x="642" y="168" width="5" height="5"/><rect x="647" y="168" width="5" height="5"/><rect x="652" y="168" width="5" height="5"/><rect x="657" y="168" width="5" height="5"/><rect x="642" y="173" width="5" height="5"/><rect x="657" y="173" width="5" height="5"/><rect x="642" y="178" width="5" height="5"/><rect x="647" y="178" width="5" height="5"/><rect x="652" y="178" width="5" height="5"/><rect x="657" y="178" width="5" height="5"/><rect x="647" y="183" width="5" height="5"/><rect x="652" y="183" width="5" height="5"/></g><text x="694" y="154" font-size="11" fill="#9b8cff" letter-spacing="2">FELLOW</text><text x="694" y="178" font-size="16" font-weight="700" fill="#e6edf3">Research Fellow</text><text x="694" y="198" font-size="11" fill="#7d8da8">URF . NLP . TIET</text></g>
<g><animate attributeName="opacity" values="0;0;1;1" keyTimes="0;0.3400;0.4100;1" dur="5s" begin="0s" fill="freeze"/><rect x="10" y="234" width="280" height="92" rx="6" fill="#0f1626" stroke="#9b8cff" stroke-opacity=".7"/><g fill="#9b8cff" shape-rendering="crispEdges"><rect x="47" y="260" width="5" height="5"/><rect x="52" y="260" width="5" height="5"/><rect x="47" y="265" width="5" height="5"/><rect x="52" y="265" width="5" height="5"/><rect x="32" y="270" width="5" height="5"/><rect x="37" y="270" width="5" height="5"/><rect x="42" y="270" width="5" height="5"/><rect x="47" y="270" width="5" height="5"/><rect x="52" y="270" width="5" height="5"/><rect x="57" y="270" width="5" height="5"/><rect x="62" y="270" width="5" height="5"/><rect x="67" y="270" width="5" height="5"/><rect x="37" y="275" width="5" height="5"/><rect x="42" y="275" width="5" height="5"/><rect x="47" y="275" width="5" height="5"/><rect x="52" y="275" width="5" height="5"/><rect x="57" y="275" width="5" height="5"/><rect x="62" y="275" width="5" height="5"/><rect x="42" y="280" width="5" height="5"/><rect x="47" y="280" width="5" height="5"/><rect x="52" y="280" width="5" height="5"/><rect x="57" y="280" width="5" height="5"/><rect x="37" y="285" width="5" height="5"/><rect x="42" y="285" width="5" height="5"/><rect x="47" y="285" width="5" height="5"/><rect x="52" y="285" width="5" height="5"/><rect x="57" y="285" width="5" height="5"/><rect x="62" y="285" width="5" height="5"/><rect x="37" y="290" width="5" height="5"/><rect x="42" y="290" width="5" height="5"/><rect x="57" y="290" width="5" height="5"/><rect x="62" y="290" width="5" height="5"/><rect x="32" y="295" width="5" height="5"/><rect x="37" y="295" width="5" height="5"/><rect x="62" y="295" width="5" height="5"/><rect x="67" y="295" width="5" height="5"/></g><text x="94" y="266" font-size="11" fill="#9b8cff" letter-spacing="2">AMBASSADOR</text><text x="94" y="290" font-size="16" font-weight="700" fill="#e6edf3">Google Gemini</text><text x="94" y="310" font-size="11" fill="#7d8da8">Student Ambassador 2026</text></g>
<g><animate attributeName="opacity" values="0;0;1;1" keyTimes="0;0.3900;0.4600;1" dur="5s" begin="0s" fill="freeze"/><rect x="310" y="234" width="280" height="92" rx="6" fill="#0f1626" stroke="#9b8cff" stroke-opacity=".7"/><g fill="#9b8cff" shape-rendering="crispEdges"><rect x="332" y="260" width="5" height="5"/><rect x="337" y="260" width="5" height="5"/><rect x="342" y="260" width="5" height="5"/><rect x="347" y="260" width="5" height="5"/><rect x="352" y="260" width="5" height="5"/><rect x="357" y="260" width="5" height="5"/><rect x="362" y="260" width="5" height="5"/><rect x="367" y="260" width="5" height="5"/><rect x="332" y="265" width="5" height="5"/><rect x="337" y="265" width="5" height="5"/><rect x="342" y="265" width="5" height="5"/><rect x="347" y="265" width="5" height="5"/><rect x="352" y="265" width="5" height="5"/><rect x="357" y="265" width="5" height="5"/><rect x="362" y="265" width="5" height="5"/><rect x="367" y="265" width="5" height="5"/><rect x="332" y="270" width="5" height="5"/><rect x="337" y="270" width="5" height="5"/><rect x="342" y="270" width="5" height="5"/><rect x="347" y="270" width="5" height="5"/><rect x="352" y="270" width="5" height="5"/><rect x="357" y="270" width="5" height="5"/><rect x="362" y="270" width="5" height="5"/><rect x="367" y="270" width="5" height="5"/><rect x="332" y="275" width="5" height="5"/><rect x="337" y="275" width="5" height="5"/><rect x="342" y="275" width="5" height="5"/><rect x="347" y="275" width="5" height="5"/><rect x="352" y="275" width="5" height="5"/><rect x="357" y="275" width="5" height="5"/><rect x="362" y="275" width="5" height="5"/><rect x="367" y="275" width="5" height="5"/><rect x="337" y="280" width="5" height="5"/><rect x="342" y="280" width="5" height="5"/><rect x="347" y="280" width="5" height="5"/><rect x="352" y="280" width="5" height="5"/><rect x="357" y="280" width="5" height="5"/><rect x="362" y="280" width="5" height="5"/><rect x="337" y="285" width="5" height="5"/><rect x="342" y="285" width="5" height="5"/><rect x="347" y="285" width="5" height="5"/><rect x="352" y="285" width="5" height="5"/><rect x="357" y="285" width="5" height="5"/><rect x="362" y="285" width="5" height="5"/><rect x="342" y="290" width="5" height="5"/><rect x="347" y="290" width="5" height="5"/><rect x="352" y="290" width="5" height="5"/><rect x="357" y="290" width="5" height="5"/><rect x="347" y="295" width="5" height="5"/><rect x="352" y="295" width="5" height="5"/></g><text x="394" y="266" font-size="11" fill="#9b8cff" letter-spacing="2">ROLE</text><text x="394" y="290" font-size="16" font-weight="700" fill="#e6edf3">Placement Rep</text><text x="394" y="310" font-size="11" fill="#7d8da8">Student Placement Rep, TIET</text></g>
<g><animate attributeName="opacity" values="0;0;1;1" keyTimes="0;0.4400;0.5100;1" dur="5s" begin="0s" fill="freeze"/><rect x="610" y="234" width="280" height="92" rx="6" fill="#0f1626" stroke="#4b5a78" stroke-dasharray="5 5"/><g fill="#4b5a78" shape-rendering="crispEdges"><rect x="642" y="260" width="5" height="5"/><rect x="647" y="260" width="5" height="5"/><rect x="652" y="260" width="5" height="5"/><rect x="657" y="260" width="5" height="5"/><rect x="637" y="265" width="5" height="5"/><rect x="642" y="265" width="5" height="5"/><rect x="657" y="265" width="5" height="5"/><rect x="662" y="265" width="5" height="5"/><rect x="637" y="270" width="5" height="5"/><rect x="662" y="270" width="5" height="5"/><rect x="632" y="275" width="5" height="5"/><rect x="637" y="275" width="5" height="5"/><rect x="642" y="275" width="5" height="5"/><rect x="647" y="275" width="5" height="5"/><rect x="652" y="275" width="5" height="5"/><rect x="657" y="275" width="5" height="5"/><rect x="662" y="275" width="5" height="5"/><rect x="667" y="275" width="5" height="5"/><rect x="632" y="280" width="5" height="5"/><rect x="637" y="280" width="5" height="5"/><rect x="642" y="280" width="5" height="5"/><rect x="657" y="280" width="5" height="5"/><rect x="662" y="280" width="5" height="5"/><rect x="667" y="280" width="5" height="5"/><rect x="632" y="285" width="5" height="5"/><rect x="637" y="285" width="5" height="5"/><rect x="642" y="285" width="5" height="5"/><rect x="657" y="285" width="5" height="5"/><rect x="662" y="285" width="5" height="5"/><rect x="667" y="285" width="5" height="5"/><rect x="632" y="290" width="5" height="5"/><rect x="637" y="290" width="5" height="5"/><rect x="642" y="290" width="5" height="5"/><rect x="647" y="290" width="5" height="5"/><rect x="652" y="290" width="5" height="5"/><rect x="657" y="290" width="5" height="5"/><rect x="662" y="290" width="5" height="5"/><rect x="667" y="290" width="5" height="5"/><rect x="632" y="295" width="5" height="5"/><rect x="637" y="295" width="5" height="5"/><rect x="642" y="295" width="5" height="5"/><rect x="647" y="295" width="5" height="5"/><rect x="652" y="295" width="5" height="5"/><rect x="657" y="295" width="5" height="5"/><rect x="662" y="295" width="5" height="5"/><rect x="667" y="295" width="5" height="5"/></g><text x="694" y="266" font-size="11" fill="#4b5a78" letter-spacing="2">LOCKED</text><text x="694" y="290" font-size="16" font-weight="700" fill="#7d8da8">???</text><text x="694" y="310" font-size="11" fill="#7d8da8">find the 3 secrets below</text></g>
</svg>